<?xml version="1.0" standalone="no"?>
<!DOCTYPE svg PUBLIC "-//W3C//DTD SVG 20010904//EN"
 "http://www.w3.org/TR/2001/REC-SVG-20010904/DTD/svg10.dtd">
<svg version="1.0" xmlns="http://www.w3.org/2000/svg"
 width="1280.000000pt" height="1280.000000pt" viewBox="0 0 1280.000000 1280.000000"
 preserveAspectRatio="xMidYMid meet">
<metadata>
Created by potrace 1.14, written by Peter Selinger 2001-2017
</metadata>
<g transform="translate(0.000000,1280.000000) scale(0.100000,-0.100000)"
fill="#000000" stroke="none">
<path d="M5998 12793 l-87 -4 -9 -47 c-6 -26 -16 -75 -22 -109 -7 -35 -15 -63
-17 -63 -3 0 -46 37 -97 83 -50 45 -98 88 -107 95 -13 9 -39 9 -125 -3 -565
-77 -1103 -225 -1638 -450 -99 -42 -140 -64 -145 -79 -4 -12 -25 -96 -47 -188
-21 -93 -42 -168 -46 -168 -5 0 -57 47 -117 105 -59 58 -112 105 -116 105 -28
0 -424 -237 -630 -378 -296 -201 -681 -516 -867 -709 l-47 -48 12 -182 c7
-101 11 -183 9 -183 -2 0 -59 29 -127 65 l-123 65 -84 -97 c-330 -382 -615
-798 -834 -1217 l-73 -140 67 -70 66 -71 -109 -25 -110 -25 -32 -65 c-44 -89
-145 -345 -204 -520 -95 -276 -166 -544 -223 -835 -53 -270 -53 -281 -25 -304
13 -10 68 -55 121 -99 l98 -80 -128 -47 c-70 -25 -134 -50 -141 -54 -33 -21
-54 -724 -31 -1061 27 -393 79 -728 171 -1112 l41 -168 163 0 c90 0 166 -4
169 -9 3 -5 -44 -90 -105 -189 l-110 -180 57 -154 c83 -224 181 -445 303 -683
103 -202 286 -518 335 -580 l24 -30 151 -3 c83 -3 151 -6 151 -9 0 -2 -31 -55
-70 -118 l-69 -114 84 -111 c339 -445 750 -857 1208 -1209 l108 -84 27 20
c217 159 253 182 256 171 3 -7 12 -94 21 -193 9 -99 18 -189 20 -201 8 -36
341 -230 667 -389 327 -158 676 -292 1001 -384 l147 -42 33 23 c17 12 83 60
146 105 63 46 115 82 117 80 2 -2 10 -66 18 -141 8 -76 17 -140 19 -143 9 -8
324 -62 482 -82 277 -36 527 -51 825 -51 246 0 647 21 670 35 3 2 15 49 25
104 l18 100 70 -62 c38 -34 84 -74 102 -89 l33 -28 168 30 c448 77 833 184
1242 344 192 75 424 178 429 191 2 6 -14 78 -36 160 -22 82 -38 152 -35 154 2
3 105 -24 228 -59 l224 -63 109 63 c309 180 660 432 960 693 121 104 373 346
373 357 0 5 -25 48 -55 97 l-54 88 52 7 c29 3 97 6 152 7 l100 1 91 108 c353
416 620 818 861 1297 l106 210 -107 175 -107 175 38 7 c21 4 103 7 183 7 l146
1 71 212 c171 504 268 956 318 1473 l15 160 -67 65 c-38 36 -108 102 -157 148
-50 45 -88 83 -85 85 2 2 74 24 159 49 l155 45 3 134 c6 228 -21 573 -69 889
-19 128 -77 427 -98 508 -34 130 -24 116 -103 147 -40 16 -88 35 -106 42 l-34
14 76 57 c42 31 76 63 76 70 1 44 -157 483 -259 719 -99 232 -331 684 -350
683 -3 0 -73 -11 -156 -24 -82 -13 -151 -23 -152 -22 -2 1 26 75 62 164 36 89
65 167 65 172 0 24 -180 277 -346 485 -164 206 -347 407 -554 608 l-183 178
-111 -6 c-61 -3 -121 -8 -134 -11 -21 -4 -20 0 20 81 l43 86 -35 30 c-87 74
-319 245 -460 341 -253 172 -470 299 -752 439 l-178 88 -68 -29 c-37 -16 -119
-51 -182 -78 -63 -27 -116 -49 -117 -48 -1 0 7 66 18 145 10 79 18 146 16 147
-7 7 -284 105 -402 142 -472 149 -943 238 -1460 277 -173 14 -615 17 -867 8z
m817 -618 c1403 -105 2682 -688 3669 -1671 984 -981 1562 -2221 1688 -3624 17
-189 17 -761 0 -950 -44 -485 -127 -894 -274 -1340 -485 -1475 -1561 -2705
-2963 -3386 -2221 -1079 -4873 -637 -6619 1102 -984 980 -1561 2220 -1688
3624 -17 190 -17 760 0 950 127 1405 704 2643 1688 3624 736 733 1651 1253
2652 1507 602 152 1242 209 1847 164z"/>
<path d="M5578 11766 c-65 -11 -122 -26 -128 -32 -8 -8 -4 -55 15 -165 14 -85
27 -164 30 -176 5 -20 1 -23 -22 -23 -90 -1 -229 -67 -303 -146 -70 -74 -103
-149 -108 -243 -12 -218 112 -393 306 -432 69 -14 178 -2 233 26 l29 15 6 -40
c11 -65 18 -67 161 -40 69 13 132 30 140 38 8 9 12 25 8 45 -3 18 -41 290 -85
605 -43 315 -82 577 -85 582 -9 15 -65 11 -197 -14z m-3 -844 c9 -52 15 -96
12 -98 -2 -2 -24 -7 -48 -10 -39 -5 -50 -3 -73 18 -23 19 -30 35 -34 76 -6 64
13 96 71 122 51 23 49 27 72 -108z"/>
<path d="M6050 11465 c-8 -9 14 -114 84 -410 51 -218 98 -401 103 -406 5 -5
113 -12 240 -16 220 -6 231 -5 241 13 20 39 233 787 228 800 -4 11 -38 14
-166 14 -157 0 -161 0 -170 -22 -5 -13 -37 -140 -71 -283 -34 -143 -64 -255
-66 -250 -1 6 -23 129 -48 274 -24 146 -50 270 -57 277 -20 18 -303 27 -318 9z"/>
<path d="M7382 11435 c-101 -28 -191 -111 -256 -235 -75 -143 -98 -319 -56
-432 45 -121 166 -225 315 -270 87 -27 236 -31 259 -8 16 17 42 179 33 204 -5
13 -25 16 -115 16 -95 0 -114 3 -158 25 -27 13 -57 38 -67 54 -17 28 -24 81
-10 81 3 0 76 -18 160 -41 144 -37 156 -39 178 -25 58 38 122 246 110 356 -10
93 -27 132 -80 186 -80 82 -207 118 -313 89z m145 -311 c14 -23 15 -32 4 -72
-7 -26 -14 -48 -17 -51 -4 -4 -144 18 -156 25 -11 7 17 64 46 95 38 40 98 41
123 3z"/>
<path d="M4200 11271 c-167 -76 -216 -102 -218 -118 -4 -30 205 -1083 219
-1099 6 -8 17 -14 24 -14 15 0 296 127 309 140 7 7 -15 136 -31 177 -6 15 186
108 197 96 4 -4 31 -43 59 -85 40 -61 57 -78 76 -78 22 0 277 103 303 123 6 5
12 15 12 22 0 7 -153 219 -340 472 -295 396 -344 458 -368 460 -16 1 -114 -38
-242 -96z m254 -446 l77 -119 -47 -24 c-25 -13 -47 -22 -49 -20 -4 4 -75 283
-75 294 0 13 15 -7 94 -131z"/>
<path d="M8046 11221 c-27 -43 -316 -740 -314 -755 2 -16 30 -32 128 -73 69
-29 133 -53 142 -53 22 0 25 6 125 245 46 110 93 208 104 218 26 21 97 23 125
3 38 -28 23 -86 -81 -321 -53 -119 -95 -224 -93 -232 4 -19 254 -147 269 -137
15 9 202 396 231 477 18 50 23 84 23 172 0 102 -2 113 -27 156 -56 96 -159
153 -261 147 -34 -2 -70 -8 -79 -12 -15 -7 -16 -5 -5 23 7 20 8 34 2 40 -17
16 -243 111 -264 111 -11 0 -22 -4 -25 -9z"/>
<path d="M9119 10748 c-34 -51 -63 -95 -65 -97 -2 -2 -15 6 -31 16 -50 35 -51
35 -69 1 -9 -18 -34 -56 -55 -84 -22 -28 -39 -57 -39 -66 0 -8 13 -27 29 -42
l29 -28 -153 -213 c-169 -235 -177 -246 -167 -262 4 -5 58 -45 121 -88 89 -61
117 -76 130 -68 9 5 78 102 154 214 76 112 142 205 147 207 5 2 33 -15 63 -37
30 -23 59 -41 65 -41 18 0 154 190 148 206 -3 7 -32 34 -66 60 -33 26 -60 51
-60 56 0 5 29 45 65 89 36 45 65 89 65 98 0 18 -213 171 -237 171 -7 0 -40
-42 -74 -92z"/>
<path d="M9507 10138 c-175 -166 -205 -198 -254 -266 -79 -110 -99 -243 -51
-337 50 -97 145 -165 232 -165 28 0 28 -1 13 -18 -10 -10 -17 -25 -17 -34 0
-19 185 -202 209 -206 12 -2 87 67 232 215 341 347 362 369 354 390 -9 24
-203 203 -220 203 -7 0 -89 -79 -181 -175 l-169 -175 -46 0 c-58 0 -105 36
-93 73 17 56 47 92 200 243 90 89 164 170 164 179 0 16 -55 83 -158 193 -16
17 -35 32 -42 32 -6 0 -84 -69 -173 -152z"/>
<path d="M2960 10201 c-92 -30 -188 -112 -222 -188 -43 -98 -32 -216 33 -345
64 -127 160 -228 269 -284 77 -39 207 -46 297 -15 77 26 143 67 207 129 54 52
126 156 126 181 0 15 -28 45 -117 125 -42 38 -65 29 -103 -43 -35 -64 -89
-125 -133 -147 -35 -19 -96 -20 -127 -4 -23 12 -21 14 61 88 161 146 171 157
163 189 -20 89 -155 238 -260 288 -61 29 -150 41 -194 26z m140 -278 c14 -10
35 -29 47 -43 l22 -25 -57 -58 -57 -58 -17 22 c-10 11 -23 38 -29 59 -14 47 0
92 34 108 30 14 29 14 57 -5z"/>
<path d="M2212 9782 c-23 -19 -192 -241 -192 -251 0 -4 12 -19 28 -33 56 -52
833 -637 849 -640 27 -5 207 240 197 267 -5 11 -810 644 -850 668 -7 4 -21 -1
-32 -11z"/>
<path d="M6230 9734 c0 -3 20 -56 44 -117 24 -62 46 -125 49 -142 l6 -30 -107
53 c-418 206 -785 171 -1149 -110 -29 -22 -53 -43 -53 -47 0 -3 30 -16 66 -29
74 -26 147 -68 140 -81 -3 -5 -28 -11 -55 -15 -175 -23 -383 -226 -469 -457
-22 -60 -46 -178 -38 -186 3 -3 39 16 80 42 79 49 188 98 245 110 l34 7 -64
-73 c-127 -146 -211 -280 -287 -459 -61 -144 -63 -154 -63 -245 1 -129 49
-265 150 -422 l51 -80 -22 -49 c-20 -41 -23 -66 -23 -159 0 -100 3 -116 28
-170 37 -79 105 -142 215 -198 115 -59 208 -87 292 -87 61 0 71 3 113 35 25
19 49 35 54 35 4 0 49 -34 98 -75 50 -41 117 -89 151 -107 l61 -31 -77 -27
c-151 -52 -497 -253 -556 -323 -29 -34 -27 -52 12 -130 13 -27 24 -52 24 -57
0 -5 -28 -26 -62 -46 -80 -49 -185 -122 -269 -189 l-65 -53 -49 92 c-63 120
-119 199 -164 233 -29 23 -46 28 -89 28 -47 0 -57 -4 -79 -29 -22 -25 -24 -35
-18 -75 4 -25 27 -92 52 -149 25 -56 43 -105 40 -109 -4 -3 -48 37 -99 89 -93
95 -143 128 -193 128 -53 0 -115 -50 -115 -92 0 -36 69 -95 180 -153 60 -32
110 -62 110 -67 0 -4 -36 -8 -80 -8 -149 0 -197 -47 -148 -147 21 -43 76 -57
205 -50 117 6 118 5 170 -24 69 -40 133 -46 259 -25 81 14 115 15 191 6 157
-17 228 12 240 99 5 36 2 44 -25 69 -16 15 -55 37 -86 47 -31 11 -56 22 -56
26 0 11 118 117 197 176 l73 55 68 -73 c134 -146 269 -259 309 -259 19 0 62
44 168 170 l80 95 12 -205 c6 -113 18 -254 27 -315 31 -225 94 -510 123 -554
14 -22 19 -23 87 -17 39 4 99 13 134 20 l63 14 -35 -42 c-65 -76 -183 -250
-241 -353 -58 -105 -115 -248 -115 -294 0 -32 47 -78 120 -118 l55 -31 -85 0
c-47 0 -148 5 -225 11 l-140 10 -72 55 c-95 73 -216 201 -279 296 l-50 76
-107 -46 c-59 -25 -107 -52 -107 -59 0 -7 24 -69 54 -138 32 -76 49 -125 41
-125 -50 0 -541 119 -570 138 -5 4 -10 21 -10 37 0 25 -4 30 -28 33 -33 4 -99
-32 -153 -83 -20 -19 -38 -34 -39 -33 -1 2 -5 14 -8 28 -6 23 0 28 56 57 120
63 217 170 217 241 0 77 -94 58 -190 -38 -32 -32 -71 -80 -86 -106 -23 -39
-30 -45 -32 -29 -3 11 -17 61 -33 110 l-29 90 27 19 c52 36 119 112 142 160
43 87 25 166 -37 166 -39 0 -121 -91 -157 -172 l-29 -67 -44 81 c-24 45 -50
106 -58 137 -29 109 -83 194 -156 243 -75 51 -148 30 -148 -43 0 -73 122 -236
217 -289 33 -18 45 -33 58 -68 8 -25 13 -47 11 -49 -1 -2 -14 5 -27 16 -39 30
-140 78 -192 92 -83 20 -157 -2 -157 -48 0 -27 62 -81 128 -112 69 -31 193
-61 257 -61 36 0 38 -4 51 -74 7 -38 6 -39 -17 -32 -113 32 -149 38 -220 34
-59 -2 -82 -8 -98 -22 -80 -72 123 -141 301 -104 l67 14 10 -45 c5 -25 8 -47
6 -49 -2 -2 -23 2 -46 9 -24 7 -87 13 -139 13 -114 1 -173 -20 -178 -66 -4
-34 25 -55 101 -69 64 -11 193 2 251 26 l33 14 12 -56 c6 -31 11 -60 11 -64 0
-4 -42 -7 -92 -7 -152 1 -278 -49 -278 -110 0 -71 197 -68 333 5 26 15 49 24
50 22 7 -8 23 -116 19 -127 -2 -8 -32 -10 -96 -5 -149 9 -280 -28 -322 -92
-15 -23 -15 -27 -1 -49 15 -22 14 -26 -15 -65 -17 -23 -33 -40 -35 -37 -11 11
-45 166 -53 241 -12 113 -32 170 -87 242 -24 31 -77 63 -107 63 -32 0 -56 -37
-56 -88 0 -90 53 -206 131 -288 31 -32 41 -52 48 -92 l8 -51 -63 58 c-100 94
-233 148 -272 109 -18 -18 -14 -57 9 -94 39 -63 200 -162 293 -179 44 -9 56
-28 56 -89 0 -44 1 -46 29 -46 16 0 43 3 61 6 30 6 32 9 27 40 -6 33 -4 34 56
63 74 36 129 79 168 134 25 34 41 44 101 63 40 13 74 22 76 20 1 -2 -2 -32 -8
-67 -5 -35 -10 -87 -10 -115 l0 -51 -70 -6 c-166 -14 -280 -121 -187 -177 43
-26 130 -26 233 1 76 19 176 20 188 1 2 -4 -27 -20 -65 -36 -78 -32 -78 -31
-31 -120 34 -62 80 -92 164 -106 50 -9 71 -17 81 -34 22 -33 105 -74 180 -88
l66 -12 3 -91 3 -90 58 -3 57 -3 0 57 c0 50 2 55 18 49 43 -19 133 -35 192
-35 79 0 132 14 166 44 36 30 25 62 -29 87 -23 10 -37 19 -32 18 6 0 111 -7
235 -15 144 -10 443 -17 835 -20 l610 -5 65 -29 c36 -16 86 -34 113 -41 46
-11 47 -12 47 -50 0 -51 16 -89 37 -89 10 0 35 5 56 11 36 10 37 12 32 42 -6
32 -5 34 54 61 34 15 82 47 108 70 l48 43 148 7 c108 5 147 4 142 -4 -25 -40
100 -111 229 -130 200 -30 429 42 451 140 5 24 14 32 45 40 22 6 55 25 73 43
33 31 36 31 73 20 50 -15 158 -16 209 -2 52 14 105 50 105 71 0 9 -13 45 -30
80 -37 78 -40 128 -7 128 43 0 97 -13 91 -21 -5 -9 70 -48 94 -49 7 0 17 12
23 28 9 27 9 27 107 27 112 0 178 19 230 68 37 36 42 75 12 102 -29 27 -147
17 -225 -19 -32 -14 -60 -25 -62 -22 -7 7 47 196 68 238 62 121 64 266 5 334
-48 57 -111 22 -141 -78 -19 -64 -20 -209 -2 -269 13 -43 6 -109 -11 -109 -4
0 -29 44 -54 98 -65 138 -143 204 -190 159 -7 -7 -44 -13 -84 -14 l-71 -3 -9
48 -9 47 -128 24 c-70 13 -124 28 -120 32 5 4 50 22 101 39 50 18 92 37 92 42
0 16 -48 91 -87 136 -58 66 -86 72 -255 51 -79 -10 -157 -20 -174 -23 -30 -4
-32 -2 -38 34 -3 21 -11 42 -16 45 -6 4 -64 21 -130 39 l-120 33 -48 -96 c-53
-108 -48 -105 -187 -116 -72 -6 -85 -5 -85 7 0 37 -73 159 -121 202 -45 40
-137 86 -174 86 -30 0 -23 19 20 51 24 19 46 40 49 47 3 7 -17 30 -48 54 l-53
41 44 84 c23 46 46 102 49 124 6 34 12 42 42 55 60 25 150 45 271 60 165 20
154 23 187 -44 l29 -57 80 -6 c107 -8 167 -28 290 -94 219 -117 339 -110 477
29 189 192 291 515 275 875 -14 310 -130 484 -347 523 -251 44 -517 -196 -522
-472 l-1 -67 -53 -12 c-66 -15 -129 -62 -179 -135 l-38 -56 -93 0 c-87 0 -224
-14 -268 -27 -16 -4 -13 2 12 33 18 21 32 48 32 59 0 14 -38 57 -109 123 -119
111 -179 192 -240 324 -51 110 -106 273 -127 379 l-18 87 43 56 c104 134 251
247 428 327 l95 43 -7 35 c-6 33 -40 104 -67 143 -11 15 -2 27 58 90 118 122
183 238 184 324 0 36 6 47 43 80 108 100 276 212 331 221 26 4 55 -3 121 -32
48 -20 116 -42 150 -48 55 -9 69 -8 104 8 45 20 81 68 81 108 0 29 -35 60
-108 97 -58 28 -126 92 -147 136 -20 43 -16 72 31 243 35 128 42 207 23 243
-15 27 -74 51 -110 43 -53 -12 -86 -71 -120 -216 -11 -49 -24 -89 -27 -89 -4
0 -22 38 -40 84 -42 108 -86 156 -142 156 -104 0 -107 -88 -11 -290 49 -103
43 -109 -46 -55 -94 57 -153 40 -155 -44 -1 -44 24 -75 94 -116 76 -44 108
-73 108 -95 0 -25 -56 -82 -141 -144 l-77 -55 -41 85 c-63 132 -64 141 -47
344 22 243 20 344 -5 451 l-21 88 55 53 c72 71 97 137 104 276 4 70 2 102 -5
102 -6 0 -13 -4 -17 -9 -7 -13 -125 -101 -134 -101 -4 0 -6 60 -3 133 5 148
-10 248 -54 366 -30 80 -89 180 -142 241 l-39 45 -38 -78 c-47 -93 -109 -170
-194 -237 -56 -45 -129 -90 -146 -90 -3 0 11 30 32 68 35 62 38 73 37 142 -1
54 -7 89 -23 125 l-23 50 -20 -25 c-31 -37 -84 -157 -97 -220 -7 -30 -15 -66
-18 -80 -4 -21 -8 -16 -28 38 -48 126 -136 218 -270 282 -105 50 -275 96 -275
74z m-1757 -5758 c36 -28 37 -31 20 -44 -48 -36 -50 -35 -65 28 -15 64 -15 64
45 16z m587 -1050 l115 -12 -75 -6 c-41 -3 -101 -15 -132 -25 -32 -11 -60 -18
-63 -15 -3 3 -5 20 -5 39 0 38 -10 37 160 19z"/>
<path d="M10214 9383 c-391 -294 -468 -354 -476 -368 -10 -16 157 -255 178
-255 8 0 99 65 203 145 134 103 197 145 215 145 44 0 100 -36 158 -100 30 -33
62 -60 70 -60 22 0 208 139 208 156 0 27 -28 70 -70 108 -38 34 -62 48 -129
73 -24 9 -24 10 22 43 31 22 47 41 46 54 0 22 -147 237 -166 243 -6 2 -123
-80 -259 -184z"/>
<path d="M2177 9068 c-14 -18 -37 -52 -52 -75 l-27 -42 -98 66 c-54 36 -103
62 -109 59 -21 -13 -142 -238 -136 -254 3 -9 48 -39 100 -67 52 -27 95 -52 95
-55 0 -3 -9 -20 -20 -38 -26 -42 -25 -50 5 -58 14 -3 52 -24 86 -45 33 -22 66
-39 74 -39 8 0 24 14 37 30 12 17 26 30 30 30 5 0 115 -63 245 -140 131 -77
242 -139 248 -137 14 5 144 228 145 249 0 22 -29 41 -260 168 -102 56 -188
104 -192 108 -4 4 9 32 28 62 19 30 33 64 32 75 -2 13 -35 40 -98 77 -52 32
-98 58 -102 58 -4 0 -18 -15 -31 -32z"/>
<path d="M10695 8724 c-11 -2 -45 -9 -75 -15 -84 -17 -212 -81 -270 -135 -30
-28 -63 -73 -83 -113 -30 -62 -32 -71 -32 -181 0 -96 4 -126 24 -180 28 -78
100 -192 135 -215 23 -15 27 -15 88 16 83 42 118 67 118 86 0 8 -20 38 -45 66
-95 109 -121 214 -69 276 14 17 29 31 33 31 4 0 33 -64 66 -142 32 -79 63
-149 68 -155 13 -18 103 -16 168 3 113 34 225 110 271 185 95 152 12 385 -160
449 -54 21 -193 35 -237 24z m129 -295 c38 -30 34 -86 -9 -110 -68 -39 -77
-37 -113 36 -37 76 -38 82 -14 88 48 13 110 6 136 -14z"/>
<path d="M1795 8343 c-20 -43 -39 -80 -41 -82 -2 -2 -48 18 -103 44 -55 26
-106 45 -113 42 -14 -5 -108 -234 -108 -262 0 -18 34 -35 138 -69 45 -15 82
-29 82 -31 0 -1 -7 -19 -15 -38 -20 -48 -19 -57 6 -57 11 0 51 -13 89 -30 38
-16 76 -30 85 -30 8 0 25 16 37 36 14 24 26 33 37 29 9 -3 125 -49 257 -102
133 -53 248 -93 256 -90 8 2 36 62 63 132 37 96 46 131 38 144 -6 9 -118 56
-251 105 l-240 88 30 70 c25 59 27 73 16 84 -12 12 -202 94 -219 94 -4 0 -24
-35 -44 -77z"/>
<path d="M10860 7881 c-223 -69 -413 -130 -422 -133 -10 -4 -18 -15 -18 -25 0
-20 66 -258 75 -273 10 -17 31 -12 261 60 215 68 225 70 253 55 41 -21 80 -74
106 -147 12 -35 29 -67 38 -72 10 -7 51 1 131 24 134 38 139 44 111 131 -13
37 -35 70 -75 112 -32 32 -52 60 -46 62 90 27 101 33 104 52 4 24 -56 253 -70
271 -6 6 -18 12 -27 11 -9 -1 -198 -58 -421 -128z"/>
<path d="M1290 7702 c-103 -56 -141 -199 -77 -292 39 -58 71 -75 142 -75 55 0
68 4 102 31 105 83 110 255 10 326 -43 31 -130 36 -177 10z"/>
<path d="M3807 7632 c-10 -10 -17 -25 -17 -34 0 -19 32 -48 52 -48 23 0 48
-117 48 -222 l0 -83 -47 -17 c-26 -9 -49 -16 -50 -14 -2 1 -7 25 -12 52 -38
198 -165 318 -319 300 -97 -11 -172 -58 -209 -130 -39 -75 -22 -229 39 -350
17 -33 24 -56 16 -53 -174 73 -297 57 -348 -43 -52 -103 8 -239 130 -293 26
-12 76 -22 118 -25 l73 -5 -6 -27 c-7 -33 14 -87 44 -114 14 -13 41 -21 79
-24 148 -10 314 118 428 331 l33 62 68 0 c90 0 151 33 183 100 33 67 21 116
-41 179 l-49 49 15 58 c19 78 36 115 75 167 27 37 35 43 57 37 48 -12 85 54
49 85 -26 20 -60 7 -81 -31 -11 -20 -33 -53 -48 -72 -35 -44 -86 -162 -87
-199 0 -33 -10 -40 -49 -32 l-31 7 0 86 c-1 47 -8 115 -16 151 -9 36 -16 84
-17 108 -3 60 -45 83 -80 44z"/>
<path d="M1626 7632 c-9 -14 -66 -263 -66 -287 0 -13 7 -25 15 -28 7 -3 159
-40 336 -83 274 -65 323 -74 335 -62 16 16 75 274 67 294 -6 16 13 10 -360
104 -284 70 -318 77 -327 62z"/>
<path d="M9272 7563 c-13 -3 -41 -22 -62 -43 -44 -44 -64 -103 -57 -167 l5
-43 -42 0 c-98 0 -179 -49 -230 -140 -27 -48 -31 -64 -30 -130 0 -61 5 -85 26
-126 35 -67 90 -119 163 -153 78 -38 127 -46 260 -46 136 1 202 23 276 94 66
64 67 94 4 121 -25 11 -45 21 -45 22 0 2 -8 26 -18 54 l-19 50 43 18 c106 44
164 176 116 265 -28 52 -75 74 -143 67 l-56 -5 -12 39 c-16 54 -65 107 -109
120 -20 5 -39 9 -42 9 -3 -1 -15 -4 -28 -6z"/>
<path d="M11155 7161 c-118 -29 -174 -111 -240 -351 -14 -52 -30 -99 -35 -104
-16 -16 -40 15 -40 51 0 46 26 147 51 195 10 20 19 39 19 42 0 4 -163 126
-187 139 -20 12 -41 -3 -77 -56 -55 -82 -89 -195 -89 -297 1 -145 50 -282 121
-337 132 -101 317 -55 399 100 9 17 38 95 63 172 52 155 73 179 78 87 3 -53
-31 -197 -50 -208 -22 -14 0 -38 86 -99 52 -36 101 -65 109 -65 22 0 76 65
103 124 13 28 31 85 40 126 33 145 -13 296 -125 409 -73 74 -135 94 -226 72z"/>
<path d="M1922 7057 c-6 -7 -16 -103 -23 -218 -7 -112 -13 -205 -14 -206 0 -1
-178 9 -394 22 -216 13 -399 21 -406 19 -7 -3 -15 -31 -19 -66 -10 -96 -7
-286 4 -293 6 -4 216 -17 468 -30 251 -13 485 -26 519 -28 41 -3 68 0 80 8 14
11 20 61 39 385 12 205 20 378 17 386 -6 16 -35 21 -164 29 -73 4 -99 2 -107
-8z"/>
<path d="M11265 5505 c-77 -42 -108 -100 -125 -235 -15 -118 -34 -168 -67
-176 -34 -9 -61 19 -79 85 -42 155 -91 196 -164 135 -68 -58 -93 -156 -80
-309 13 -140 12 -161 -6 -179 -23 -24 -44 -7 -107 82 -78 112 -134 129 -198
61 -68 -73 -63 -214 16 -394 26 -61 58 -135 71 -165 15 -36 24 -75 24 -112 0
-53 -2 -58 -36 -86 -19 -16 -73 -49 -120 -73 -46 -24 -84 -49 -84 -55 0 -6 -9
-18 -21 -25 -20 -14 -20 -14 13 -53 l34 -39 33 17 c18 10 52 35 75 55 93 84
209 164 250 172 23 4 93 3 156 -3 63 -6 160 -12 215 -12 92 -1 104 1 147 27
49 29 104 97 118 148 21 74 -30 109 -160 109 -78 0 -80 1 -80 24 0 41 17 48
211 85 110 21 163 51 203 112 34 50 42 91 26 129 -21 50 -57 63 -137 49 -64
-11 -67 -11 -85 10 -24 30 -12 57 75 166 93 116 112 160 112 260 0 92 -15 129
-70 171 -45 34 -116 42 -160 19z"/>
<path d="M1359 5477 c-41 -27 -79 -98 -79 -148 0 -82 61 -221 150 -339 l41
-55 -43 -5 c-24 -3 -55 -14 -70 -23 -54 -37 -76 -133 -44 -194 32 -64 161
-138 319 -184 42 -13 77 -26 77 -30 0 -3 -18 -19 -41 -34 -47 -34 -69 -70 -69
-119 0 -136 290 -193 503 -99 l58 26 137 -136 c124 -123 179 -163 198 -144 8
8 23 77 24 105 0 17 -9 27 -35 37 -54 23 -175 100 -224 143 l-45 39 41 49
c148 176 173 432 59 612 -34 54 -62 72 -111 72 -50 0 -112 -37 -173 -104 -24
-26 -45 -46 -47 -44 -8 9 -24 160 -18 174 4 11 2 15 -4 11 -7 -4 -18 14 -28
46 -37 115 -91 177 -154 177 -39 0 -75 -28 -101 -79 -12 -24 -13 -23 -33 25
-36 87 -107 184 -156 215 -54 35 -87 36 -132 6z"/>
<path d="M2658 3433 c-342 -276 -363 -294 -363 -311 0 -15 85 -131 97 -132 3
0 53 43 110 95 56 52 106 95 109 95 3 0 34 -32 69 -71 38 -42 68 -68 76 -65 8
3 39 24 69 47 l56 42 -76 70 c-42 38 -75 73 -73 77 5 12 149 130 158 130 5 0
48 -49 95 -110 48 -60 89 -110 91 -110 4 0 125 78 132 84 2 3 -52 69 -120 148
-68 79 -135 158 -148 176 -13 17 -27 32 -31 32 -4 0 -117 -89 -251 -197z"/>
<path d="M9662 3369 c-30 -38 -52 -73 -50 -77 2 -5 82 -76 178 -159 96 -83
227 -196 292 -252 64 -55 118 -101 121 -101 9 0 252 301 252 312 0 12 -86 127
-95 128 -5 0 -143 -181 -172 -224 -5 -7 -97 79 -235 217 -126 125 -230 227
-233 227 -3 -1 -29 -32 -58 -71z"/>
<path d="M3194 3092 c-217 -77 -374 -300 -344 -489 20 -126 124 -230 254 -254
125 -23 284 54 387 189 156 204 139 435 -40 535 -70 39 -178 47 -257 19z m167
-184 c36 -20 69 -68 69 -101 0 -8 -16 -46 -36 -86 -68 -136 -193 -230 -279
-211 -59 13 -105 67 -105 123 0 119 167 297 279 297 18 0 51 -10 72 -22z"/>
<path d="M9333 3055 c-210 -106 -218 -387 -18 -602 166 -180 370 -195 513 -38
82 89 101 182 62 307 -39 127 -158 266 -277 325 -47 23 -74 29 -143 31 -76 3
-91 0 -137 -23z m193 -160 c50 -20 165 -140 195 -200 56 -116 6 -224 -104
-225 -56 0 -98 23 -161 90 -123 128 -141 271 -43 330 38 24 66 25 113 5z"/>
<path d="M3761 2749 c-17 -28 -31 -54 -31 -59 0 -4 13 -16 29 -27 l30 -18
-185 -282 c-101 -155 -184 -284 -184 -287 0 -5 129 -86 139 -86 4 0 18 19 31
43 13 23 47 79 77 125 l53 83 30 -16 c29 -15 30 -18 25 -63 -9 -67 -24 -316
-20 -321 5 -4 146 -31 168 -31 16 0 17 13 10 190 l-6 190 34 0 c74 1 171 67
211 144 21 42 26 124 9 167 -30 79 -127 163 -285 248 -51 28 -96 51 -98 51 -3
0 -19 -23 -37 -51z m203 -214 c76 -70 47 -179 -52 -192 -40 -5 -115 13 -110
27 7 18 124 190 129 190 3 0 18 -11 33 -25z"/>
<path d="M8703 2605 c-173 -88 -217 -312 -103 -535 82 -160 252 -260 392 -231
76 16 166 75 206 135 99 151 41 395 -133 554 -78 71 -132 95 -230 100 -71 3
-86 1 -132 -23z m180 -158 c18 -8 55 -39 82 -69 95 -103 139 -242 100 -314
-25 -47 -90 -79 -141 -70 -79 15 -195 174 -210 288 -9 62 21 125 73 156 45 25
53 26 96 9z"/>
<path d="M4349 2323 c-73 -159 -254 -612 -247 -618 9 -8 132 -78 255 -146
l143 -77 59 66 c33 37 57 70 54 75 -2 4 -64 37 -136 73 -187 93 -175 80 -142
159 15 36 32 65 37 65 5 0 56 -20 114 -46 57 -25 108 -43 113 -40 7 5 81 123
81 130 0 2 -21 11 -47 21 -27 10 -82 33 -125 52 l-76 35 29 66 c17 37 32 68
34 70 2 2 65 -21 141 -52 75 -31 139 -55 141 -52 3 3 20 39 38 81 l33 76 -24
10 c-14 5 -29 9 -34 9 -4 0 -95 29 -202 65 -106 36 -194 65 -196 65 -2 0 -21
-39 -43 -87z"/>
<path d="M8203 2347 c-40 -17 -73 -36 -73 -42 0 -6 30 -82 66 -169 36 -86 64
-163 61 -169 -7 -17 -156 -72 -166 -61 -5 5 -32 74 -60 153 -28 79 -53 146
-56 149 -7 7 -175 -59 -175 -70 0 -5 14 -37 32 -71 17 -34 82 -190 144 -346
63 -156 115 -286 117 -288 2 -2 38 13 80 32 l75 36 -45 107 c-25 59 -47 114
-50 123 -3 12 17 25 79 51 46 20 86 33 90 29 4 -3 27 -57 52 -119 25 -63 48
-118 51 -122 8 -13 151 57 147 72 -2 7 -39 103 -82 213 -42 110 -102 273 -131
363 -39 117 -58 162 -69 161 -8 0 -48 -15 -87 -32z"/>
<path d="M5108 2118 c-68 -9 -122 -34 -167 -80 -44 -44 -61 -89 -61 -157 0
-72 31 -124 123 -205 73 -65 92 -100 73 -137 -22 -46 -148 -32 -239 27 -27 18
-39 21 -42 12 -6 -18 -35 -148 -35 -157 0 -5 39 -22 88 -37 118 -39 252 -41
326 -5 90 45 131 150 90 236 -8 18 -55 72 -104 119 -90 86 -107 115 -96 161
12 49 107 59 221 24 37 -11 68 -19 69 -17 10 15 54 164 50 170 -8 12 -113 40
-179 47 -33 4 -86 3 -117 -1z"/>
<path d="M7530 2102 c-110 -36 -210 -115 -265 -209 -115 -194 -31 -467 171
-560 98 -44 224 -39 334 15 39 19 40 25 9 108 l-20 52 -60 -19 c-69 -22 -117
-24 -174 -8 -102 29 -166 186 -120 297 38 89 150 162 251 162 l45 0 -3 88 -3
87 -55 2 c-32 1 -79 -5 -110 -15z"/>
<path d="M6923 2000 c-158 -17 -274 -81 -326 -180 -25 -47 -28 -63 -24 -112 9
-108 62 -164 209 -221 121 -48 151 -104 75 -143 -40 -21 -141 -29 -191 -16
-22 6 -42 9 -46 7 -4 -3 -4 -26 1 -52 5 -27 11 -65 14 -85 l6 -38 63 0 c87 0
170 17 241 49 103 48 149 108 149 196 0 92 -50 141 -203 200 -89 33 -133 70
-133 108 0 57 70 94 198 104 l72 6 -5 81 c-5 89 -8 107 -20 105 -4 -1 -40 -5
-80 -9z"/>
<path d="M5486 1990 c-2 -3 -6 -33 -10 -67 l-7 -61 38 -6 c21 -3 66 -8 101
-12 59 -6 62 -7 62 -32 0 -15 -13 -155 -29 -312 -16 -157 -27 -287 -25 -289 6
-6 185 -33 190 -28 3 2 8 140 11 305 3 166 9 306 13 312 5 8 38 8 119 -1 89
-10 114 -10 120 0 14 23 43 173 34 181 -9 9 -613 19 -617 10z"/>
</g>
</svg>
